<svg width="282" height="48" viewBox="0 0 282 48" fill="none" xmlns="http://www.w3.org/2000/svg">
<circle cx="24" cy="24" r="22" stroke="#2176FF" stroke-width="4"/>
<path d="M22.94 31V18.2L24.34 19.6H20.14V17H26.18V31H22.94Z" fill="#2176FF"/>
<rect x="47" y="23" width="32" height="4" fill="#2176FF"/>
<circle cx="102" cy="24" r="22" stroke="#ADB5BD" stroke-width="4"/>
<path d="M96.66 31V28.9L102.06 23.8C102.487 23.4133 102.8 23.0667 103 22.76C103.2 22.4533 103.333 22.1733 103.4 21.92C103.48 21.6667 103.52 21.4333 103.52 21.22C103.52 20.66 103.327 20.2333 102.94 19.94C102.567 19.6333 102.013 19.48 101.28 19.48C100.693 19.48 100.147 19.5933 99.64 19.82C99.1467 20.0467 98.7267 20.4 98.38 20.88L96.02 19.36C96.5533 18.56 97.3 17.9267 98.26 17.46C99.22 16.9933 100.327 16.76 101.58 16.76C102.62 16.76 103.527 16.9333 104.3 17.28C105.087 17.6133 105.693 18.0867 106.12 18.7C106.56 19.3133 106.78 20.0467 106.78 20.9C106.78 21.3533 106.72 21.8067 106.6 22.26C106.493 22.7 106.267 23.1667 105.92 23.66C105.587 24.1533 105.093 24.7067 104.44 25.32L99.96 29.54L99.34 28.36H107.24V31H96.66Z" fill="#ADB5BD"/>
<circle cx="180" cy="24" r="22" stroke="#ADB5BD" stroke-width="4"/>
<path d="M179.32 31.24C178.347 31.24 177.38 31.1133 176.42 30.86C175.46 30.5933 174.647 30.22 173.98 29.74L175.24 27.26C175.773 27.6467 176.393 27.9533 177.1 28.18C177.807 28.4067 178.52 28.52 179.24 28.52C180.053 28.52 180.693 28.36 181.16 28.04C181.627 27.72 181.86 27.28 181.86 26.72C181.86 26.1867 181.653 25.7667 181.24 25.46C180.827 25.1533 180.16 25 179.24 25H177.76V22.86L181.66 18.44L182.02 19.6H174.68V17H184.48V19.1L180.6 23.52L178.96 22.58H179.9C181.62 22.58 182.92 22.9667 183.8 23.74C184.68 24.5133 185.12 25.5067 185.12 26.72C185.12 27.5067 184.913 28.2467 184.5 28.94C184.087 29.62 183.453 30.1733 182.6 30.6C181.747 31.0267 180.653 31.24 179.32 31.24Z" fill="#ADB5BD"/>
<rect x="125" y="23" width="32" height="4" fill="#ADB5BD"/>
<circle cx="258" cy="24" r="22" stroke="#ADB5BD" stroke-width="4"/>
<path d="M252.62 28.06V25.88L259.22 17H262.62L256.16 25.88L254.58 25.42H265.6V28.06H252.62ZM260.16 31V28.06L260.26 25.42V22.8H263.32V31H260.16Z" fill="#ADB5BD"/>
<rect x="203" y="23" width="32" height="4" fill="#ADB5BD"/>
</svg>
