<svg width="25" height="25" viewBox="0 0 20 20" fill="none" xmlns="http://www.w3.org/2000/svg">
<path d="M10 0C12.6522 0 15.1957 1.05357 17.0711 2.92893C18.9464 4.8043 20 7.34783 20 10C20 12.6522 18.9464 15.1957 17.0711 17.0711C15.1957 18.9464 12.6522 20 10 20C7.34784 20 4.8043 18.9464 2.92893 17.0711C1.05357 15.1957 0 12.6522 0 10C0 7.34783 1.05357 4.8043 2.92893 2.92893C4.8043 1.05357 7.34784 0 10 0ZM5.625 9.375C5.45924 9.375 5.30027 9.44085 5.18306 9.55806C5.06585 9.67527 5 9.83424 5 10C5 10.1658 5.06585 10.3247 5.18306 10.4419C5.30027 10.5592 5.45924 10.625 5.625 10.625H12.8663L10.1825 13.3075C10.0651 13.4249 9.99921 13.584 9.99921 13.75C9.99921 13.916 10.0651 14.0751 10.1825 14.1925C10.2999 14.3099 10.459 14.3758 10.625 14.3758C10.791 14.3758 10.9501 14.3099 11.0675 14.1925L14.8175 10.4425C14.8757 10.3844 14.9219 10.3155 14.9534 10.2395C14.9849 10.1636 15.0011 10.0822 15.0011 10C15.0011 9.91779 14.9849 9.83639 14.9534 9.76046C14.9219 9.68453 14.8757 9.61556 14.8175 9.5575L11.0675 5.8075C10.9501 5.69014 10.791 5.62421 10.625 5.62421C10.459 5.62421 10.2999 5.69014 10.1825 5.8075C10.0651 5.92486 9.99921 6.08403 9.99921 6.25C9.99921 6.41597 10.0651 6.57514 10.1825 6.6925L12.8663 9.375H5.625Z" fill="#2176FF"/>
</svg>
