<svg width="16" height="27" viewBox="0 0 16 27" fill="none" xmlns="http://www.w3.org/2000/svg">
<path d="M14.7276 26.0175C15.1025 25.6424 15.3132 25.1338 15.3132 24.6035C15.3132 24.0731 15.1025 23.5645 14.7276 23.1895L4.82758 13.2895L14.7276 3.38945C15.0919 3.01225 15.2935 2.50704 15.2889 1.98265C15.2844 1.45825 15.074 0.956629 14.7032 0.585812C14.3324 0.214996 13.8308 0.00465952 13.3064 0.000102821C12.782 -0.00445388 12.2768 0.197136 11.8996 0.561451L0.585574 11.8755C0.210633 12.2505 1.21027e-06 12.7591 1.16391e-06 13.2895C1.11755e-06 13.8198 0.210632 14.3284 0.585574 14.7035L11.8996 26.0175C12.2746 26.3924 12.7833 26.603 13.3136 26.603C13.8439 26.603 14.3525 26.3924 14.7276 26.0175Z" fill="#EBF2FF"/>
</svg>
