<svg width="16" height="27" viewBox="0 0 16 27" fill="none" xmlns="http://www.w3.org/2000/svg">
<path d="M14.7277 26.0175C15.1026 25.6424 15.3132 25.1338 15.3132 24.6035C15.3132 24.0731 15.1026 23.5645 14.7277 23.1895L4.82766 13.2895L14.7277 3.38945C15.092 3.01225 15.2936 2.50704 15.289 1.98265C15.2845 1.45825 15.0741 0.956629 14.7033 0.585812C14.3325 0.214996 13.8309 0.00465952 13.3065 0.000102821C12.7821 -0.00445388 12.2769 0.197136 11.8997 0.561451L0.585655 11.8755C0.210713 12.2505 8.13189e-05 12.7591 8.12726e-05 13.2895C8.12262e-05 13.8198 0.210713 14.3284 0.585654 14.7035L11.8997 26.0175C12.2747 26.3924 12.7833 26.603 13.3137 26.603C13.844 26.603 14.3526 26.3924 14.7277 26.0175Z" fill="black"/>
</svg>
