<svg width="29" height="23" viewBox="0 0 29 23" fill="none" xmlns="http://www.w3.org/2000/svg">
<path d="M3.625 3.84635C2.66359 3.84635 1.74156 4.23266 1.06174 4.9203C0.381919 5.60793 0 6.54056 0 7.51302L0 18.513C0 19.4855 0.381919 20.4181 1.06174 21.1057C1.74156 21.7934 2.66359 22.1797 3.625 22.1797H25.375C26.3364 22.1797 27.2584 21.7934 27.9383 21.1057C28.6181 20.4181 29 19.4855 29 18.513V7.51302C29 6.54056 28.6181 5.60793 27.9383 4.9203C27.2584 4.23266 26.3364 3.84635 25.375 3.84635H23.2507C22.2894 3.84615 21.3675 3.4597 20.6879 2.77202L19.1871 1.25402C18.5075 0.56634 17.5856 0.179895 16.6243 0.179688H12.3758C11.4144 0.179895 10.4925 0.56634 9.81287 1.25402L8.31213 2.77202C7.63246 3.4597 6.71058 3.84615 5.74925 3.84635H3.625ZM4.53125 7.51302C4.2909 7.51302 4.06039 7.41644 3.89043 7.24454C3.72048 7.07263 3.625 6.83947 3.625 6.59635C3.625 6.35324 3.72048 6.12008 3.89043 5.94817C4.06039 5.77626 4.2909 5.67969 4.53125 5.67969C4.7716 5.67969 5.00211 5.77626 5.17207 5.94817C5.34202 6.12008 5.4375 6.35324 5.4375 6.59635C5.4375 6.83947 5.34202 7.07263 5.17207 7.24454C5.00211 7.41644 4.7716 7.51302 4.53125 7.51302ZM20.8438 12.0964C20.8438 13.7982 20.1754 15.4303 18.9857 16.6336C17.796 17.837 16.1825 18.513 14.5 18.513C12.8175 18.513 11.204 17.837 10.0143 16.6336C8.82461 15.4303 8.15625 13.7982 8.15625 12.0964C8.15625 10.3945 8.82461 8.76244 10.0143 7.55909C11.204 6.35573 12.8175 5.67969 14.5 5.67969C16.1825 5.67969 17.796 6.35573 18.9857 7.55909C20.1754 8.76244 20.8438 10.3945 20.8438 12.0964Z" fill="white"/>
</svg>
