<svg width="14" height="12" viewBox="0 0 14 12" fill="none" xmlns="http://www.w3.org/2000/svg">
<path d="M11.8238 0.355164C12.0657 0.124841 12.3877 -0.00249045 12.7217 3.69161e-05C13.0557 0.00256428 13.3757 0.134753 13.6141 0.36871C13.8525 0.602667 13.9907 0.920093 13.9995 1.25401C14.0084 1.58792 13.8871 1.91221 13.6614 2.15844L6.809 10.7283C6.69117 10.8552 6.54895 10.957 6.39086 11.0277C6.23277 11.0984 6.06205 11.1365 5.8889 11.1397C5.71575 11.1429 5.54373 11.1112 5.38313 11.0464C5.22253 10.9816 5.07665 10.8851 4.9542 10.7626L0.409958 6.21837C0.283408 6.10045 0.181906 5.95825 0.111507 5.80025C0.0411069 5.64225 0.00325191 5.47169 0.000200455 5.29874C-0.002851 5.1258 0.0289637 4.95401 0.0937458 4.79362C0.158528 4.63324 0.254951 4.48754 0.377262 4.36523C0.499573 4.24292 0.645267 4.1465 0.805651 4.08171C0.966036 4.01693 1.13783 3.98512 1.31077 3.98817C1.48372 3.99122 1.65428 4.02908 1.81228 4.09947C1.97028 4.16987 2.11248 4.27138 2.2304 4.39793L5.82664 7.99245L11.7912 0.392947C11.8019 0.379724 11.8134 0.36711 11.8255 0.355164H11.8238Z" fill="white"/>
</svg>
