<svg width="13" height="12" viewBox="0 0 13 12" fill="none" xmlns="http://www.w3.org/2000/svg">
<path d="M0.979674 0.251763C1.06032 0.171957 1.15613 0.10864 1.26161 0.0654386C1.36708 0.0222369 1.48016 0 1.59436 0C1.70855 0 1.82163 0.0222369 1.92711 0.0654386C2.03258 0.10864 2.12839 0.171957 2.20904 0.251763L6.80353 4.78849L11.398 0.251763C11.4787 0.172086 11.5746 0.108884 11.68 0.065763C11.7855 0.0226426 11.8985 0.000448674 12.0127 0.000448674C12.1269 0.000448674 12.2399 0.0226426 12.3454 0.065763C12.4508 0.108884 12.5467 0.172086 12.6274 0.251763C12.7081 0.331439 12.7721 0.426028 12.8158 0.53013C12.8595 0.634232 12.882 0.745808 12.882 0.858488C12.882 0.971167 12.8595 1.08274 12.8158 1.18685C12.7721 1.29095 12.7081 1.38554 12.6274 1.46521L8.03115 6.00022L12.6274 10.5352C12.7081 10.6149 12.7721 10.7095 12.8158 10.8136C12.8595 10.9177 12.882 11.0293 12.882 11.142C12.882 11.2546 12.8595 11.3662 12.8158 11.4703C12.7721 11.5744 12.7081 11.669 12.6274 11.7487C12.5467 11.8284 12.4508 11.8916 12.3454 11.9347C12.2399 11.9778 12.1269 12 12.0127 12C11.8985 12 11.7855 11.9778 11.68 11.9347C11.5746 11.8916 11.4787 11.8284 11.398 11.7487L6.80353 7.21196L2.20904 11.7487C2.12832 11.8284 2.03249 11.8916 1.92702 11.9347C1.82155 11.9778 1.70851 12 1.59436 12C1.4802 12 1.36716 11.9778 1.26169 11.9347C1.15622 11.8916 1.06039 11.8284 0.979674 11.7487C0.898953 11.669 0.834921 11.5744 0.791235 11.4703C0.747549 11.3662 0.725064 11.2546 0.725064 11.142C0.725064 11.0293 0.747549 10.9177 0.791235 10.8136C0.834921 10.7095 0.898953 10.6149 0.979674 10.5352L5.5759 6.00022L0.979674 1.46521C0.898822 1.38561 0.834674 1.29104 0.790906 1.18693C0.747138 1.08282 0.724609 0.971207 0.724609 0.858488C0.724609 0.745768 0.747138 0.634156 0.790906 0.530044C0.834674 0.425932 0.898822 0.331366 0.979674 0.251763Z" fill="white"/>
</svg>
