<svg width="32" height="32" viewBox="0 0 29 31" fill="none" xmlns="http://www.w3.org/2000/svg">
<path d="M2.33906 9.68113L3.51239 7.64885C4.20572 6.44797 5.76055 6.0216 6.97299 6.7216C9.06299 7.92827 10.7708 6.94357 10.7667 4.52403C10.7663 3.13813 11.9043 1.9938 13.3016 2.00003L15.9593 2.0102C17.1848 1.99416 18.176 2.99748 18.192 4.22303L18.1924 4.51575C18.1849 6.92863 19.8939 7.91529 21.9913 6.70908L22.2449 6.56303C23.3144 5.96415 24.6788 6.32083 25.2777 7.3902L26.6153 9.68669C27.3195 10.8938 26.8975 12.4515 25.6969 13.144C23.5995 14.3503 23.6007 16.3216 25.6907 17.5283C26.8916 18.2216 27.318 19.7764 26.618 20.9888L25.4447 23.0211C24.7513 24.222 23.1964 24.6484 21.984 23.9484C19.894 22.7418 18.1861 23.7264 18.1903 26.1459C18.1841 27.5434 17.0528 28.6762 15.6553 28.67L12.9977 28.6598C11.7722 28.6759 10.781 27.6726 10.765 26.447L10.7646 26.1543C10.7721 23.7414 9.06312 22.7547 6.96568 23.961L6.712 24.107C5.64263 24.7059 4.27816 24.3492 3.67928 23.2798L2.34166 20.9834C1.63754 19.7762 2.05959 18.2186 3.26003 17.5259C5.35747 16.3198 5.35632 14.3484 3.26632 13.1418C2.05388 12.4417 1.64572 10.882 2.33906 9.68113Z" stroke="black" stroke-width="3" stroke-miterlimit="10" stroke-linecap="round" stroke-linejoin="round"/>
<path d="M18.8053 15.3348C18.8053 12.9416 16.8652 11.0015 14.472 11.0015C12.0788 11.0015 10.1387 12.9416 10.1387 15.3348C10.1387 17.728 12.0788 19.6681 14.472 19.6681C16.8652 19.6681 18.8053 17.728 18.8053 15.3348Z" stroke="black" stroke-width="3"/>
</svg>
