<svg width="32" height="32" fill="none" xmlns="http://www.w3.org/2000/svg"><path d="m4.2 10.348 1.174-2.033a2.54 2.54 0 0 1 3.46-.927c2.09 1.207 3.798.222 3.794-2.197a2.532 2.532 0 0 1 2.535-2.524l2.658.01c1.225-.016 2.216.987 2.232 2.213v.292c-.007 2.413 1.702 3.4 3.8 2.194l.253-.146c1.07-.6 2.434-.243 3.033.827l1.338 2.296a2.532 2.532 0 0 1-.919 3.458c-2.097 1.206-2.096 3.177-.006 4.384a2.54 2.54 0 0 1 .927 3.46l-1.173 2.033a2.54 2.54 0 0 1-3.46.927c-2.09-1.207-3.799-.222-3.794 2.198a2.529 2.529 0 0 1-2.535 2.524l-2.658-.01c-1.226.015-2.217-.988-2.233-2.213v-.293c.007-2.413-1.701-3.4-3.799-2.193l-.254.146c-1.069.598-2.434.242-3.032-.828L4.203 21.65a2.532 2.532 0 0 1 .918-3.457c2.098-1.207 2.097-3.178.007-4.385a2.54 2.54 0 0 1-.928-3.46Z" stroke="#fff" stroke-width="3" stroke-miterlimit="10" stroke-linecap="round" stroke-linejoin="round"/><path d="M20.667 16.002a4.333 4.333 0 1 0-8.667 0 4.333 4.333 0 0 0 8.667 0Z" stroke="#fff" stroke-width="3"/></svg>