<svg width="12" height="12" viewBox="0 0 12 12" fill="none" xmlns="http://www.w3.org/2000/svg">
<path d="M10.3589 6.73167C9.97791 6.84136 9.58537 6.89688 9.19115 6.89684C7.99078 6.89684 6.8635 6.39097 6.01677 5.4731C5.46074 4.86688 5.061 4.11328 4.85739 3.28739C4.65378 2.46151 4.65341 1.5922 4.85631 0.766119C4.88165 0.662833 4.88149 0.554139 4.85585 0.450941C4.8302 0.347744 4.77997 0.253671 4.7102 0.178159C4.64043 0.102648 4.55356 0.0483532 4.45832 0.0207215C4.36308 -0.00691017 4.26281 -0.00690711 4.16757 0.0207304C3.21355 0.296325 2.34315 0.839028 1.6437 1.5944C-0.547899 3.97013 -0.547899 7.83726 1.6437 10.2142C2.16462 10.7821 2.78427 11.2323 3.46677 11.5388C4.14927 11.8453 4.88107 12.0021 5.61983 12C6.35839 12.0022 7.09002 11.8456 7.77235 11.5392C8.45467 11.2327 9.07413 10.7826 9.59484 10.2148C10.2922 9.45645 10.7931 8.51243 11.0471 7.47767C11.0723 7.37442 11.0721 7.26581 11.0465 7.16268C11.0209 7.05955 10.9707 6.96553 10.901 6.89001C10.8314 6.81448 10.7446 6.76011 10.6495 6.73232C10.5544 6.70454 10.4542 6.70431 10.3589 6.73167ZM8.8004 9.35302C8.38377 9.80714 7.88818 10.1672 7.34234 10.4123C6.79649 10.6574 6.21122 10.7827 5.62039 10.781C5.02936 10.7826 4.44391 10.6572 3.89788 10.412C3.35186 10.1668 2.85609 9.80663 2.43926 9.35241C0.686209 7.45146 0.686209 4.35776 2.43926 2.45681C2.77801 2.09 3.1691 1.7848 3.59747 1.55295C3.53476 2.43002 3.64748 3.31143 3.92791 4.13694C4.20834 4.96245 4.64987 5.7126 5.22233 6.33612C5.79626 6.95862 6.48806 7.43858 7.2499 7.7428C8.01175 8.04702 8.82545 8.16825 9.63476 8.09811C9.41971 8.56169 9.13808 8.98527 8.8004 9.35302Z" fill="#6C757D"/>
</svg>
