<svg width="20" height="20" viewBox="0 0 16 15" fill="none" xmlns="http://www.w3.org/2000/svg">
<path fill-rule="evenodd" clip-rule="evenodd" d="M12.4875 0.16891C12.6029 0.0607571 12.7594 0 12.9226 0C13.0857 0 13.2422 0.0607571 13.3576 0.16891L15.8192 2.47653C15.8765 2.53012 15.922 2.59378 15.953 2.66387C15.984 2.73396 16 2.8091 16 2.88498C16 2.96086 15.984 3.036 15.953 3.10609C15.922 3.17618 15.8765 3.23984 15.8192 3.29343L10.9675 7.84176C10.874 7.92974 10.7659 8.00298 10.6475 8.05867L5.8142 10.3236C5.69877 10.3776 5.56816 10.3963 5.44081 10.3769C5.31347 10.3575 5.19584 10.3011 5.10455 10.2157C5.01325 10.1302 4.95292 10.02 4.93207 9.90067C4.91122 9.78132 4.9309 9.65884 4.98835 9.55055L7.40437 5.01838C7.46377 4.90736 7.54191 4.80606 7.63576 4.71839L12.4875 0.16891ZM12.9232 1.3931L8.50468 5.53529L7.22837 7.9306L7.54098 8.22367L10.0973 7.02601L14.5146 2.88498L12.9232 1.3931ZM9.84623 1.15426L8.61546 2.30808H3.56926C3.04249 2.30808 2.6831 2.30808 2.4074 2.33C2.13663 2.35077 1.99879 2.38769 1.90278 2.43384C1.67121 2.54446 1.48293 2.72096 1.36493 2.93806C1.3157 3.02805 1.27632 3.15728 1.25416 3.41112C1.23078 3.66957 1.23078 4.00649 1.23078 4.50032V11.6539C1.23078 12.1478 1.23078 12.4847 1.25416 12.7431C1.27632 12.997 1.3157 13.1262 1.36493 13.2162C1.48293 13.4333 1.67121 13.6098 1.90278 13.7204C1.99879 13.7666 2.13663 13.8035 2.4074 13.8243C2.68433 13.8462 3.04249 13.8462 3.56926 13.8462H11.2001C11.7269 13.8462 12.0863 13.8462 12.3619 13.8243C12.6327 13.8035 12.7706 13.7666 12.8666 13.7204C13.0981 13.6098 13.2864 13.4333 13.4044 13.2162C13.4536 13.1262 13.493 12.997 13.5152 12.7431C13.5386 12.4835 13.5386 12.1478 13.5386 11.6539V6.92332L14.7694 5.76951V11.677C14.7694 12.142 14.7694 12.5251 14.7423 12.8378C14.714 13.162 14.6537 13.4608 14.501 13.74C14.265 14.1742 13.8885 14.5272 13.4253 14.7485C13.1263 14.8915 12.8087 14.9481 12.4629 14.9746C12.1306 15 11.7207 15 11.2259 15H3.54464C3.04864 15 2.64002 15 2.30648 14.9746C1.96063 14.9481 1.64186 14.8915 1.34401 14.7485C0.88086 14.5272 0.504304 14.1742 0.26831 13.74C0.115693 13.4597 0.0553852 13.162 0.0270772 12.8378C9.18905e-08 12.5262 0 12.142 0 11.677V4.47724C0 4.01226 9.18905e-08 3.62919 0.0270772 3.31651C0.0553852 2.99229 0.115693 2.69345 0.26831 2.41423C0.504304 1.98004 0.88086 1.62703 1.34401 1.4058C1.64309 1.26272 1.96063 1.20619 2.30648 1.17965C2.63879 1.15427 3.04864 1.15426 3.54464 1.15426H9.84623Z" fill="black"/>
</svg>
