<svg width="23" height="23" fill="none" xmlns="http://www.w3.org/2000/svg"><path d="M16.509 0c-.69 0-1.395.273-1.916.805-.33.343-.563.77-.676 1.237-.188-.04-.37-.086-.564-.086-.69 0-1.395.244-1.916.776a2.79 2.79 0 0 0-.781 1.941c0 .727.28 1.424.781 1.941l.76.777-4.508 4.601-.76-.776a2.655 2.655 0 0 0-.865-.595 2.611 2.611 0 0 0-1.023-.21 2.69 2.69 0 0 0-1.916.805c-.319.332-.55.74-.674 1.187a2.816 2.816 0 0 0-.031 1.372c-.433.116-.841.313-1.183.662a2.79 2.79 0 0 0-.782 1.941c0 .727.281 1.424.782 1.941l.028.03 1.212 1.265-.62.632 1.296 1.324.62-.634 1.268 1.266c.506.511 1.19.798 1.902.798s1.396-.287 1.902-.798a2.73 2.73 0 0 0 .676-1.209 2.653 2.653 0 0 0 2.48-.717 2.79 2.79 0 0 0 .782-1.942 2.79 2.79 0 0 0-.782-1.942l-.761-.776 4.508-4.601.76.777c.506.511 1.19.798 1.902.798.713 0 1.396-.287 1.903-.798.665-.684.89-1.648.703-2.531.447-.12.856-.358 1.184-.69a2.79 2.79 0 0 0 .782-1.942 2.79 2.79 0 0 0-.782-1.942l-1.24-1.292.62-.633-1.296-1.325-.62.634L18.396.805A2.653 2.653 0 0 0 17.53.21 2.61 2.61 0 0 0 16.51 0Zm0 1.84a.841.841 0 0 1 .62.26l3.803 3.882a.874.874 0 0 1 .266.633.89.89 0 0 1-.266.632.892.892 0 0 1-.634.27.877.877 0 0 1-.634-.27l-3.776-3.854a.912.912 0 0 1-.264-.647.926.926 0 0 1 .264-.647.856.856 0 0 1 .62-.258Zm-3.156 1.928c.226 0 .444.107.62.287l5.043 5.148a.912.912 0 0 1 .264.647.926.926 0 0 1-.264.647c-.351.359-.883.331-1.24-.029h-.028L12.705 5.32c-.352-.359-.325-.902.028-1.265.172-.169.401-.287.62-.287Zm.113 4.917L14.48 9.72l-4.508 4.601-1.015-1.035 4.509-4.602ZM5.04 12.252c.225 0 .444.107.62.287h.027l5.044 5.148c.352.359.325.902-.028 1.265-.352.34-.89.355-1.24 0l-.62-.633-.112-.085-3.691-3.797-.62-.633a.912.912 0 0 1-.264-.647.928.928 0 0 1 .264-.647.856.856 0 0 1 .62-.26v.002Zm-1.916 3.22c.225 0 .472.108.647.288l3.776 3.854a.913.913 0 0 1 .265.647.928.928 0 0 1-.265.647.848.848 0 0 1-1.24 0l-3.803-3.883a.875.875 0 0 1-.266-.633.89.89 0 0 1 .266-.632c.176-.18.395-.288.62-.288Z" fill="#fff"/></svg>