<svg width="23" height="23" fill="none" xmlns="http://www.w3.org/2000/svg"><path d="m22.2 11.323-9.377-9.922-.629-.666A.743.743 0 0 0 11.656.5a.743.743 0 0 0-.539.235L1.112 11.323c-.147.155-.263.34-.341.543-.078.203-.117.42-.115.64.01.904.72 1.626 1.575 1.626h1.031V22.5H20.05v-8.368h1.054c.415 0 .805-.172 1.099-.483.144-.153.26-.334.337-.534.078-.2.118-.414.117-.63 0-.437-.163-.85-.456-1.162Zm-9.185 9.327h-2.718V15.41h2.718v5.241Zm5.287-8.368v8.368h-3.734v-5.858c0-.568-.435-1.028-.97-1.028H9.713c-.536 0-.97.46-.97 1.028v5.858H5.009v-8.368H2.68l8.98-9.5.56.594 8.415 8.906h-2.332Z" fill="#fff"/></svg>