<svg width="12" height="12" viewBox="0 0 12 12" fill="none" xmlns="http://www.w3.org/2000/svg">
<g clip-path="url(#clip0_513_325)">
<path d="M5.53293 8.14265C6.62427 8.14265 7.50898 7.18326 7.50898 5.99979C7.50898 4.81632 6.62427 3.85693 5.53293 3.85693C4.44159 3.85693 3.55688 4.81632 3.55688 5.99979C3.55688 7.18326 4.44159 8.14265 5.53293 8.14265Z" stroke="#6C757D"/>
<path d="M5.92811 0.428571C5.92811 0.191878 5.75117 0 5.53291 0C5.31464 0 5.1377 0.191878 5.1377 0.428571V2.14286C5.1377 2.37955 5.31464 2.57143 5.53291 2.57143C5.75117 2.57143 5.92811 2.37955 5.92811 2.14286V0.428571Z" fill="#6C757D"/>
<path d="M5.92811 9.85728C5.92811 9.62059 5.75117 9.42871 5.53291 9.42871C5.31464 9.42871 5.1377 9.62059 5.1377 9.85728V11.5716C5.1377 11.8083 5.31464 12.0001 5.53291 12.0001C5.75117 12.0001 5.92811 11.8083 5.92811 11.5716V9.85728Z" fill="#6C757D"/>
<path d="M9.08979 5.57157C8.87152 5.57157 8.69458 5.76345 8.69458 6.00014C8.69458 6.23683 8.87152 6.42871 9.08979 6.42871H10.6706C10.8889 6.42871 11.0658 6.23683 11.0658 6.00014C11.0658 5.76345 10.8889 5.57157 10.6706 5.57157H9.08979Z" fill="#6C757D"/>
<path d="M8.00928 3.09184C7.84207 3.24398 7.82026 3.5143 7.96056 3.69562C8.10086 3.87694 8.35014 3.90059 8.51735 3.74845L9.72834 2.64652C9.89554 2.49438 9.91735 2.22406 9.77705 2.04274C9.63675 1.86142 9.38747 1.83777 9.22027 1.98991L8.00928 3.09184Z" fill="#6C757D"/>
<path d="M8.54491 8.66033C8.39057 8.49297 8.14034 8.49297 7.986 8.66033C7.83166 8.8277 7.83166 9.09906 7.986 9.26642L9.10382 10.4786C9.25816 10.646 9.50839 10.646 9.66273 10.4786C9.81707 10.3112 9.81707 10.0399 9.66273 9.87252L8.54491 8.66033Z" fill="#6C757D"/>
<path d="M3.14176 9.26607C3.2961 9.0987 3.2961 8.82735 3.14176 8.65998C2.98742 8.49261 2.73719 8.49261 2.58285 8.65998L1.46503 9.87216C1.31069 10.0395 1.31069 10.3109 1.46503 10.4783C1.61937 10.6456 1.8696 10.6456 2.02394 10.4783L3.14176 9.26607Z" fill="#6C757D"/>
<path d="M2.50168 3.74832C2.66888 3.90046 2.91816 3.87681 3.05846 3.69549C3.19876 3.51417 3.17696 3.24385 3.00975 3.09171L1.79876 1.98979C1.63156 1.83764 1.38228 1.86129 1.24198 2.04261C1.10168 2.22393 1.12349 2.49425 1.29069 2.6464L2.50168 3.74832Z" fill="#6C757D"/>
<path d="M0.39521 5.57157C0.176941 5.57157 0 5.76345 0 6.00014C0 6.23683 0.176941 6.42871 0.39521 6.42871H1.97605C2.19432 6.42871 2.37126 6.23683 2.37126 6.00014C2.37126 5.76345 2.19432 5.57157 1.97605 5.57157H0.39521Z" fill="#6C757D"/>
</g>
<defs>
<clipPath id="clip0_513_325">
<rect width="11.0659" height="12" fill="white"/>
</clipPath>
</defs>
</svg>
