<svg width="197" height="46" fill="none" xmlns="http://www.w3.org/2000/svg"><path d="M90.853 34.701v-17.14H84.14V13.58h18.281v3.983h-6.713V34.7h-4.855ZM104.352 34.701V18.467h4.465v4.587l-.629-1.328c.479-1.147 1.248-2.012 2.307-2.595 1.059-.604 2.348-.905 3.866-.905v4.345c-.2-.02-.379-.03-.539-.03-.16-.02-.33-.03-.51-.03-1.278 0-2.317.372-3.116 1.116-.78.724-1.169 1.86-1.169 3.41V34.7h-4.675ZM125.977 34.701v-3.168l-.3-.694v-5.673c0-1.006-.31-1.79-.929-2.354-.599-.563-1.528-.845-2.787-.845-.859 0-1.708.141-2.547.423-.819.261-1.519.623-2.098 1.086l-1.678-3.29c.879-.623 1.938-1.105 3.176-1.448a14.134 14.134 0 0 1 3.776-.512c2.458 0 4.366.583 5.724 1.75 1.359 1.166 2.038 2.987 2.038 5.461v9.264h-4.375Zm-4.915.241c-1.259 0-2.337-.21-3.237-.633-.899-.443-1.588-1.036-2.067-1.78a4.522 4.522 0 0 1-.72-2.505c0-.966.23-1.81.69-2.535.479-.724 1.228-1.287 2.247-1.69 1.019-.422 2.348-.633 3.986-.633h4.286v2.746h-3.776c-1.099 0-1.858.18-2.278.543-.4.362-.599.815-.599 1.358 0 .603.229 1.086.689 1.448.479.342 1.129.513 1.948.513.779 0 1.478-.181 2.098-.543.619-.382 1.068-.936 1.348-1.66l.719 2.173c-.339 1.046-.959 1.84-1.858 2.384-.899.543-2.057.814-3.476.814ZM134.583 34.701V18.467h4.675v16.234h-4.675Zm2.338-18.497c-.859 0-1.559-.252-2.098-.755a2.456 2.456 0 0 1-.809-1.87c0-.745.27-1.368.809-1.871.539-.503 1.239-.755 2.098-.755.859 0 1.558.242 2.098.725.539.462.809 1.066.809 1.81 0 .785-.27 1.439-.809 1.962-.52.502-1.219.754-2.098.754Z" fill="#fff"/><path d="M153.8 18c1.278 0 2.417.262 3.416.785 1.019.503 1.818 1.287 2.397 2.353.58 1.046.869 2.394.869 4.044v9.293h-4.675v-8.57c0-1.307-.289-2.272-.869-2.896-.559-.624-1.358-.935-2.397-.935-.739 0-1.409.16-2.008.482-.579.302-1.039.775-1.378 1.419-.32.643-.48 1.468-.48 2.474v8.026H144V18.241h4.465v4.496l-.839-1.357a6 6 0 0 1 2.487-2.505c1.079-.583 2.308-.875 3.687-.875ZM166.465 40.57c-.839 0-1.668-.13-2.487-.392-.819-.261-1.488-.623-2.008-1.086l1.708-3.35c.36.323.769.574 1.229.755.479.181.949.272 1.408.272.66 0 1.179-.161 1.559-.483.399-.302.759-.815 1.079-1.539l.839-1.992.359-.513 5.784-14h4.495l-7.282 17.23c-.519 1.307-1.119 2.333-1.798 3.077-.659.744-1.398 1.267-2.218 1.57-.799.3-1.688.452-2.667.452Zm2.757-5.46L162.03 18.24h4.825l5.574 13.579-3.207 3.29ZM191.701 34.475v-3.168l-.3-.694V24.94c0-1.006-.31-1.79-.929-2.353-.599-.564-1.528-.845-2.787-.845-.859 0-1.708.14-2.547.422-.819.262-1.519.624-2.098 1.086l-1.678-3.289c.879-.623 1.938-1.106 3.176-1.448a14.13 14.13 0 0 1 3.776-.513c2.458 0 4.366.583 5.724 1.75 1.359 1.167 2.038 2.987 2.038 5.462v9.263h-4.375Zm-4.915.242c-1.259 0-2.338-.211-3.237-.634-.899-.442-1.588-1.036-2.067-1.78a4.522 4.522 0 0 1-.72-2.505c0-.965.23-1.81.69-2.534.479-.724 1.228-1.288 2.247-1.69 1.019-.423 2.348-.634 3.986-.634h4.285v2.746h-3.776c-1.098 0-1.858.181-2.277.543-.4.362-.599.815-.599 1.358 0 .604.229 1.086.689 1.448.479.343 1.129.514 1.948.514.779 0 1.478-.182 2.097-.544.62-.382 1.069-.935 1.349-1.66l.719 2.173c-.339 1.046-.959 1.841-1.858 2.384-.899.543-2.058.815-3.476.815Z" fill="#001029"/><path fill-rule="evenodd" clip-rule="evenodd" d="M4.958 4.605a.648.648 0 0 1 .61-.431H22.7a.65.65 0 0 1 .648.652v6.707l7.986 3.79 8.02-3.79V4.825c0-.36.29-.652.647-.652h17.063c.274 0 .517.172.61.43l4.92 13.71a.654.654 0 0 1-.336.813l-17.64 8.288-12.754 18.307a.646.646 0 0 1-1.061 0L18.048 27.416.375 19.126a.654.654 0 0 1-.336-.813l4.92-13.708Zm.935.687-4.666 13 17.403 8.162a.65.65 0 0 1 .257.217l12.447 17.865L43.781 26.67a.65.65 0 0 1 .256-.217l17.369-8.16L56.74 5.291H40.465v6.536a.653.653 0 0 1-.373.591l-8.482 4.01a.644.644 0 0 1-.552-.001l-8.448-4.01a.653.653 0 0 1-.372-.59V5.292H5.893Z" fill="#EBF2FF"/><path fill-rule="evenodd" clip-rule="evenodd" d="M20.275 27.15a.187.187 0 0 1 .045-.26l.606-.43c.084-.059.2-.038.258.046l9.98 14.29c.074.105.23.105.303 0l9.936-14.289a.184.184 0 0 1 .257-.046l.607.428a.187.187 0 0 1 .046.26L31.469 42.743a.184.184 0 0 1-.303 0L20.276 27.15ZM55.358 7.458a.185.185 0 0 0-.175-.127h-6.576a.186.186 0 0 1-.185-.186v-.746c0-.103.082-.186.185-.186h7.37c.08 0 .15.05.176.126l1.345 3.968a.187.187 0 0 1-.116.237l-.7.24a.185.185 0 0 1-.236-.116l-1.088-3.21ZM2.498 17.862a.187.187 0 0 1-.096-.236l1.503-3.958a.185.185 0 0 1 .24-.107l.691.266a.187.187 0 0 1 .107.24L3.811 17.05a.187.187 0 0 0 .095.236l5.53 2.58a.187.187 0 0 1 .09.248l-.312.677a.185.185 0 0 1-.246.09l-6.47-3.019ZM31.317 1.168 25.53 3.933v6.446l5.787 2.744 5.717-2.698V3.887l-5.717-2.719ZM31.04.063a.644.644 0 0 1 .554 0l6.18 2.939a.653.653 0 0 1 .372.59v7.13a.653.653 0 0 1-.373.59l-6.18 2.916a.644.644 0 0 1-.551 0l-6.25-2.963a.653.653 0 0 1-.372-.59V3.638c0-.252.144-.481.37-.59L31.04.064Z" fill="#EBF2FF"/></svg>