<svg width="32" height="32" fill="none" xmlns="http://www.w3.org/2000/svg"><path d="M8.597 11.96a7.448 7.448 0 0 1 14.806 0l.336 3.02c.068.615.102.922.159 1.223.137.726.375 1.43.706 2.092.137.273.296.538.614 1.068l.965 1.608c.805 1.343 1.208 2.014.921 2.522-.287.507-1.07.507-2.636.507H7.532c-1.566 0-2.349 0-2.636-.507-.287-.508.116-1.179.921-2.522l.965-1.608c.318-.53.477-.795.614-1.068a8 8 0 0 0 .706-2.093c.057-.3.091-.607.16-1.221l.335-3.022Z" stroke="#fff" stroke-width="3"/><path d="M12.136 24.541c.228.992.73 1.87 1.429 2.495.699.625 1.555.964 2.435.964.88 0 1.736-.339 2.435-.964.699-.626 1.2-1.503 1.429-2.495" stroke="#fff" stroke-width="3" stroke-linecap="round"/></svg>