<svg width="27" height="31" viewBox="0 0 18 21" fill="none" xmlns="http://www.w3.org/2000/svg">
<path fill-rule="evenodd" clip-rule="evenodd" d="M7.77208 0.463379C9.20815 0.463379 10.3537 0.463379 11.2848 0.532744C11.1663 0.823594 11.101 1.14177 11.101 1.47519V2.01038L10.6865 2.01038C9.30578 2.01038 8.18649 3.12966 8.18649 4.51038C8.18649 5.89109 9.30578 7.01038 10.6865 7.01038H11.101V7.54556C11.101 8.92628 12.2203 10.0456 13.601 10.0456C14.3856 10.0456 15.0858 9.68412 15.5442 9.11867V12.9259C15.5442 16.4759 15.5442 18.2509 14.4963 19.397C14.4158 19.4851 14.3313 19.5696 14.2432 19.6501C13.0971 20.698 11.3221 20.698 7.77208 20.698C4.22207 20.698 2.44706 20.698 1.30094 19.6501C1.21285 19.5696 1.12841 19.4851 1.04787 19.397C0 18.2509 0 16.4759 0 12.9259V8.23545C0 4.68544 0 2.91044 1.04787 1.76432C1.12841 1.67623 1.21285 1.59179 1.30094 1.51125C2.44706 0.463379 4.22207 0.463379 7.77208 0.463379ZM3.88599 9.58057C3.3337 9.58057 2.88599 10.0283 2.88599 10.5806C2.88599 11.1329 3.3337 11.5806 3.88599 11.5806H7.77203C8.32432 11.5806 8.77203 11.1329 8.77203 10.5806C8.77203 10.0283 8.32432 9.58057 7.77203 9.58057H3.88599ZM3.88599 12.6158C3.3337 12.6158 2.88599 13.0635 2.88599 13.6158C2.88599 14.168 3.3337 14.6158 3.88599 14.6158H9.71506C10.2673 14.6158 10.7151 14.168 10.7151 13.6158C10.7151 13.0635 10.2673 12.6158 9.71506 12.6158H3.88599ZM3.88599 15.6509C3.3337 15.6509 2.88599 16.0987 2.88599 16.6509C2.88599 17.2032 3.3337 17.6509 3.88599 17.6509H7.77203C8.32432 17.6509 8.77203 17.2032 8.77203 16.6509C8.77203 16.0987 8.32432 15.6509 7.77203 15.6509H3.88599Z" fill="#001029"/>
<path d="M13.6011 1.4751L13.6011 7.54547" stroke="white" stroke-width="2" stroke-linecap="round"/>
<path d="M16.5156 4.51025L10.6866 4.51025" stroke="white" stroke-width="2" stroke-linecap="round"/>
</svg>
