<svg width="27" height="28" viewBox="0 0 24 24" fill="none" xmlns="http://www.w3.org/2000/svg">
<path d="M12.3328 10.9232C11.9091 10.8155 11.4854 10.6001 11.1676 10.277C10.8499 10.1693 10.7439 9.84627 10.7439 9.63088C10.7439 9.4155 10.8499 9.09242 11.0617 8.98473C11.3795 8.76934 11.6973 8.55396 12.0151 8.66165C12.6506 8.66165 13.1803 8.98473 13.498 9.4155L14.4514 8.12319C14.1336 7.80011 13.8158 7.58473 13.498 7.36934C13.1803 7.15396 12.7565 7.04627 12.3328 7.04627V5.53857H11.0617V7.04627C10.5321 7.15396 10.0024 7.47704 9.57874 7.9078C9.15503 8.44627 8.83725 9.09242 8.94318 9.73857C8.94318 10.3847 9.15503 11.0309 9.57874 11.4617C10.1084 12.0001 10.8499 12.3232 11.4854 12.6463C11.8032 12.754 12.2269 12.9693 12.5447 13.1847C12.7565 13.4001 12.8625 13.7232 12.8625 14.0463C12.8625 14.3693 12.7565 14.6924 12.5447 15.0155C12.2269 15.3386 11.8032 15.4463 11.4854 15.4463C11.0617 15.4463 10.5321 15.3386 10.2143 15.0155C9.89652 14.8001 9.57874 14.477 9.36689 14.154L8.30762 15.3386C8.6254 15.7693 8.94318 16.0924 9.36689 16.4155C9.89652 16.7386 10.5321 17.0617 11.1676 17.0617V18.4617H12.3328V16.8463C12.9684 16.7386 13.498 16.4155 13.9217 15.9847C14.4514 15.4463 14.7692 14.5847 14.7692 13.8309C14.7692 13.1847 14.5573 12.4309 14.0277 12.0001C13.498 11.4617 12.9684 11.1386 12.3328 10.9232Z" fill="#495057"/>
<path d="M12 0C5.4 0 0 5.4 0 12C0 18.6 5.4 24 12 24C18.6 24 24 18.6 24 12C24 5.4 18.6 0 12 0ZM12 22.35C6.3 22.35 1.65 17.7 1.65 12C1.65 6.3 6.3 1.65 12 1.65C17.7 1.65 22.35 6.3 22.35 12C22.35 17.7 17.7 22.35 12 22.35Z" fill="#495057"/>
</svg>
