<svg width="26" height="26" viewBox="0 0 26 26" fill="none" xmlns="http://www.w3.org/2000/svg">
<path d="M12.9636 0C5.80467 0 0 5.69814 0 12.7257C0 19.7532 5.80467 25.4513 12.9636 25.4513C20.1225 25.4513 25.9272 19.7532 25.9272 12.7257C25.9272 5.69814 20.1225 0 12.9636 0ZM17.1333 12.9217L10.8136 17.4353C10.7789 17.4597 10.7381 17.4743 10.6956 17.4775C10.653 17.4806 10.6104 17.4722 10.5724 17.4531C10.5345 17.434 10.5026 17.405 10.4803 17.3693C10.458 17.3336 10.4462 17.2925 10.4461 17.2507V8.22907C10.446 8.18711 10.4577 8.14592 10.4799 8.11009C10.5021 8.07425 10.5341 8.04516 10.5721 8.02604C10.6102 8.00692 10.6529 7.99852 10.6955 8.00176C10.7381 8.00501 10.779 8.01978 10.8136 8.04444L17.1333 12.5552C17.1632 12.576 17.1875 12.6034 17.2044 12.6353C17.2212 12.6672 17.2299 12.7025 17.2299 12.7384C17.2299 12.7743 17.2212 12.8097 17.2044 12.8416C17.1875 12.8735 17.1632 12.9009 17.1333 12.9217Z" fill="white"/>
</svg>
