<svg width="27" height="28" viewBox="0 0 27 28" fill="none" xmlns="http://www.w3.org/2000/svg">
<path fill-rule="evenodd" clip-rule="evenodd" d="M0.72156 0.608178C1.16527 0.208839 1.74651 0 2.33333 0H21C21.5868 0 22.1681 0.208839 22.6118 0.608178C23.059 1.01065 23.3333 1.58049 23.3333 2.2V8.4388C23.3333 8.99109 22.8856 9.4388 22.3333 9.4388C21.781 9.4388 21.3333 8.99109 21.3333 8.4388V2.2C21.3333 2.18299 21.3268 2.14239 21.2738 2.09477C21.2175 2.04402 21.1204 2 21 2H2.33333C2.21291 2 2.11588 2.04402 2.05949 2.09477C2.00658 2.14239 2 2.18299 2 2.2V23.8C2 23.817 2.00658 23.8576 2.05949 23.9052C2.11588 23.956 2.21291 24 2.33333 24H9C9.55229 24 10 24.4477 10 25C10 25.5523 9.55229 26 9 26H2.33333C1.74651 26 1.16527 25.7912 0.72156 25.3918C0.274374 24.9894 0 24.4195 0 23.8V2.2C0 1.58049 0.274375 1.01064 0.72156 0.608178Z" fill="#495057"/>
<path fill-rule="evenodd" clip-rule="evenodd" d="M5 7C5 6.44772 5.44772 6 6 6H14.6667C15.219 6 15.6667 6.44772 15.6667 7C15.6667 7.55228 15.219 8 14.6667 8H6C5.44772 8 5 7.55228 5 7ZM5 11.2C5 10.6477 5.44772 10.2 6 10.2H9.33333C9.88562 10.2 10.3333 10.6477 10.3333 11.2C10.3333 11.7523 9.88562 12.2 9.33333 12.2H6C5.44772 12.2 5 11.7523 5 11.2Z" fill="#495057"/>
<path d="M19 12.6665L13 15.3332V19.3332C13 23.0332 15.56 26.4932 19 27.3332C22.44 26.4932 25 23.0332 25 19.3332V15.3332L19 12.6665ZM19 19.9932H23.6667C23.3133 22.7398 21.48 25.1865 19 25.9532V19.9998H14.3333V16.1998L19 14.1265V19.9932Z" fill="#495057"/>
</svg>
