<svg width="29" height="29" fill="none" xmlns="http://www.w3.org/2000/svg"><path d="M18.654 7.501c0 2.094-1.66 3.792-3.706 3.792-2.046 0-3.705-1.698-3.705-3.792s1.659-3.791 3.705-3.791c2.047 0 3.706 1.697 3.706 3.791ZM22.074 20.335c0 1.255-.695 2.473-1.98 3.412-1.283.939-3.1 1.546-5.146 1.546s-3.862-.607-5.146-1.546c-1.285-.939-1.98-2.157-1.98-3.412s.695-2.474 1.98-3.413c1.284-.938 3.1-1.546 5.146-1.546s3.863.608 5.146 1.546c1.285.94 1.98 2.158 1.98 3.413Z" stroke="#fff" stroke-width="2"/></svg>
