<svg width="28" height="29" fill="none" xmlns="http://www.w3.org/2000/svg"><path d="M19.627 3.708H8.467c-2.619 0-4.742 2.22-4.742 4.959v11.666c0 2.739 2.123 4.959 4.742 4.959h11.16c2.62 0 4.742-2.22 4.742-4.959V8.667c0-2.739-2.123-4.959-4.742-4.959Z" stroke="#fff" stroke-width="2"/><path fill-rule="evenodd" clip-rule="evenodd" d="M19.304 10.954c0-.483-.374-.875-.837-.875h-3.156c-.462 0-.837.392-.837.875s.375.875.837.875h1.136l-2.696 2.819-1.596-1.67a.811.811 0 0 0-1.184 0L7.42 16.692a.903.903 0 0 0 0 1.237.811.811 0 0 0 1.184 0l2.959-3.093 1.596 1.669a.811.811 0 0 0 1.184 0l3.287-3.438v1.188c0 .483.375.875.837.875.463 0 .837-.392.837-.875v-3.3Z" fill="#fff"/></svg>