<svg width="38" height="37" fill="none" xmlns="http://www.w3.org/2000/svg"><path d="M14.427 8.325v5.55H9.004v-5.55h5.423ZM17.14 5.55H6.292v11.1H17.14V5.55Zm-2.712 17.575v5.55H9.004v-5.55h5.423Zm2.712-2.775H6.292v11.1H17.14v-11.1ZM28.89 8.325v5.55h-5.424v-5.55h5.424Zm2.712-2.775H20.755v11.1h10.847V5.55Zm-10.847 14.8h2.712v2.775h-2.712V20.35Zm2.712 2.775h2.711V25.9h-2.712v-2.775Zm2.711-2.775h2.712v2.775h-2.712V20.35Zm-5.423 5.55h2.712v2.775h-2.712V25.9Zm2.712 2.775h2.711v2.775h-2.712v-2.775Zm2.711-2.775h2.712v2.775h-2.712V25.9Zm2.712-2.775h2.712V25.9H28.89v-2.775Zm0 5.55h2.712v2.775H28.89v-2.775ZM35.217 9.25c-.994 0-1.807-.832-1.807-1.85V3.7h-3.616c-.994 0-1.808-.833-1.808-1.85C27.986.832 28.8 0 29.794 0h5.423c.995 0 1.808.833 1.808 1.85V7.4c0 1.018-.813 1.85-1.808 1.85Zm1.808 25.9V29.6c0-1.018-.813-1.85-1.808-1.85-.994 0-1.807.832-1.807 1.85v3.7h-3.616c-.994 0-1.808.833-1.808 1.85 0 1.017.814 1.85 1.808 1.85h5.423c.995 0 1.808-.833 1.808-1.85ZM2.676 37H8.1c.994 0 1.808-.833 1.808-1.85 0-1.017-.814-1.85-1.808-1.85H4.484v-3.7c0-1.018-.813-1.85-1.808-1.85-.994 0-1.807.832-1.807 1.85v5.55c0 1.017.813 1.85 1.807 1.85ZM.87 1.85V7.4c0 1.018.813 1.85 1.807 1.85.995 0 1.808-.832 1.808-1.85V3.7H8.1c.994 0 1.808-.833 1.808-1.85C9.908.832 9.094 0 8.1 0H2.676C1.682 0 .87.833.87 1.85Z" fill="#fff"/></svg>