<svg width="24" height="24" viewBox="0 0 24 24" fill="none" xmlns="http://www.w3.org/2000/svg">
<path d="M20 16.6531C19.05 16.6531 18.1733 16.9592 17.4867 17.4704L10.58 12.8816C10.6956 12.2987 10.6956 11.7013 10.58 11.1184L17.4867 6.52959C18.1733 7.04082 19.05 7.34694 20 7.34694C22.2067 7.34694 24 5.7 24 3.67347C24 1.64694 22.2067 0 20 0C17.7933 0 16 1.64694 16 3.67347C16 4.02857 16.0533 4.36837 16.1567 4.69286L9.59667 9.0551C8.62333 7.87041 7.07667 7.10204 5.33333 7.10204C2.38667 7.10204 0 9.29388 0 12C0 14.7061 2.38667 16.898 5.33333 16.898C7.07667 16.898 8.62333 16.1296 9.59667 14.9449L16.1567 19.3071C16.0533 19.6316 16 19.9745 16 20.3265C16 22.3531 17.7933 24 20 24C22.2067 24 24 22.3531 24 20.3265C24 18.3 22.2067 16.6531 20 16.6531ZM20 2.08163C20.9567 2.08163 21.7333 2.7949 21.7333 3.67347C21.7333 4.55204 20.9567 5.26531 20 5.26531C19.0433 5.26531 18.2667 4.55204 18.2667 3.67347C18.2667 2.7949 19.0433 2.08163 20 2.08163ZM5.33333 14.6939C3.71667 14.6939 2.4 13.4847 2.4 12C2.4 10.5153 3.71667 9.30612 5.33333 9.30612C6.95 9.30612 8.26667 10.5153 8.26667 12C8.26667 13.4847 6.95 14.6939 5.33333 14.6939ZM20 21.9184C19.0433 21.9184 18.2667 21.2051 18.2667 20.3265C18.2667 19.448 19.0433 18.7347 20 18.7347C20.9567 18.7347 21.7333 19.448 21.7333 20.3265C21.7333 21.2051 20.9567 21.9184 20 21.9184Z" fill="#495057"/>
</svg>
