<svg width="26" height="26" viewBox="0 0 26 26" fill="none" xmlns="http://www.w3.org/2000/svg">
<path d="M22.3333 8.4388V2.2C22.3333 1.88174 22.1929 1.57652 21.9428 1.35147C21.6928 1.12643 21.3536 1 21 1H2.33333C1.97971 1 1.64057 1.12643 1.39052 1.35147C1.14048 1.57652 1 1.88174 1 2.2V23.8C1 24.1183 1.14048 24.4235 1.39052 24.6485C1.64057 24.8736 1.97971 25 2.33333 25H9" stroke="#495057" stroke-width="2" stroke-linecap="round" stroke-linejoin="round"/>
<path d="M6 7H14.6667M6 11.2H9.33333" stroke="#495057" stroke-width="2" stroke-linecap="round"/>
<path d="M18.3334 25C14.6514 25 11.6667 22.3138 11.6667 19C11.6667 15.6862 14.6514 13 18.3334 13C22.0154 13 25.0001 15.6862 25.0001 19C25.0001 22.3138 22.0154 25 18.3334 25Z" stroke="#495057" stroke-width="2" stroke-linecap="round" stroke-linejoin="round"/>
<path d="M13.6667 14.8003L23.0001 23.2003" stroke="#495057" stroke-width="2" stroke-linecap="round"/>
<path d="M18.3334 25C22.0154 25 25.0001 22.3138 25.0001 19M11.6667 19C11.6667 15.6862 14.6514 13 18.3334 13L11.6667 19Z" stroke="#495057" stroke-width="2" stroke-linecap="round" stroke-linejoin="round"/>
</svg>
