<svg width="27" height="28" viewBox="0 0 24 24" fill="none" xmlns="http://www.w3.org/2000/svg">
<path fill-rule="evenodd" clip-rule="evenodd" d="M6.4856 18.4286C10.5926 17.8286 13.4204 17.8802 17.5328 18.4496C17.8306 18.4927 18.1027 18.6422 18.2989 18.8704C18.4951 19.0986 18.6021 19.3901 18.6002 19.691C18.6002 19.979 18.5012 20.2586 18.3224 20.477C18.0108 20.8578 17.6915 21.2322 17.3648 21.6002H18.9494C19.049 21.4814 19.1492 21.3602 19.2506 21.2372C19.6065 20.8007 19.8006 20.2547 19.8002 19.6916C19.8002 18.4766 18.9134 17.4296 17.6972 17.2616C13.4876 16.679 10.5452 16.6232 6.3122 17.2418C5.0834 17.4212 4.2002 18.4844 4.2002 19.7078C4.2002 20.2508 4.3772 20.7878 4.7126 21.2228C4.8116 21.3512 4.9094 21.4772 5.0066 21.6008H6.55279C6.24885 21.2369 5.95239 20.8668 5.6636 20.4908C5.49197 20.2657 5.39939 19.9902 5.4002 19.7072C5.4002 19.061 5.8646 18.5192 6.4856 18.4286Z" fill="#495057"/>
<path fill-rule="evenodd" clip-rule="evenodd" d="M12.0002 12.6002C12.473 12.6002 12.9411 12.5071 13.3779 12.3262C13.8146 12.1452 14.2115 11.8801 14.5458 11.5458C14.8801 11.2115 15.1452 10.8146 15.3262 10.3779C15.5071 9.94108 15.6002 9.47295 15.6002 9.0002C15.6002 8.52744 15.5071 8.05931 15.3262 7.62253C15.1452 7.18576 14.8801 6.7889 14.5458 6.45461C14.2115 6.12032 13.8146 5.85515 13.3779 5.67423C12.9411 5.49331 12.473 5.4002 12.0002 5.4002C11.0454 5.4002 10.1297 5.77948 9.45461 6.45461C8.77948 7.12974 8.4002 8.04542 8.4002 9.0002C8.4002 9.95498 8.77948 10.8706 9.45461 11.5458C10.1297 12.2209 11.0454 12.6002 12.0002 12.6002ZM12.0002 13.8002C13.2732 13.8002 14.4941 13.2945 15.3943 12.3943C16.2945 11.4941 16.8002 10.2732 16.8002 9.0002C16.8002 7.72716 16.2945 6.50626 15.3943 5.60608C14.4941 4.70591 13.2732 4.2002 12.0002 4.2002C10.7272 4.2002 9.50626 4.70591 8.60608 5.60608C7.70591 6.50626 7.2002 7.72716 7.2002 9.0002C7.2002 10.2732 7.70591 11.4941 8.60608 12.3943C9.50626 13.2945 10.7272 13.8002 12.0002 13.8002Z" fill="#495057"/>
<path fill-rule="evenodd" clip-rule="evenodd" d="M12 22.8C17.9646 22.8 22.8 17.9646 22.8 12C22.8 6.0354 17.9646 1.2 12 1.2C6.0354 1.2 1.2 6.0354 1.2 12C1.2 17.9646 6.0354 22.8 12 22.8ZM12 24C18.6276 24 24 18.6276 24 12C24 5.3724 18.6276 0 12 0C5.3724 0 0 5.3724 0 12C0 18.6276 5.3724 24 12 24Z" fill="#495057"/>
</svg>
